<?xml version="1.0" encoding="UTF-8"?>
<svg xmlns="http://www.w3.org/2000/svg" id="a" width="865.76" height="682.89" viewBox="0 0 865.76 682.89">
  <g>
    <g>
      <path d="M419.03,317.08l-2.37-6.22h1.11l1.34,3.73c.14,.4,.28,.82,.4,1.25,.09-.33,.22-.72,.39-1.18l1.38-3.8h1.08l-2.36,6.22h-.97Z"></path>
      <path d="M426.98,317.08h-1.05v-6.72c-.25,.24-.59,.48-1,.73s-.78,.42-1.11,.54v-1.02c.59-.28,1.11-.61,1.55-1.01s.75-.78,.94-1.15h.68v8.62h-.01Z"></path>
    </g>
    <g>
      <path d="M712.69,153.96l-12.29,171.74-2,28.64c-.55,7.75-7,13.75-14.77,13.75H416.63c-7.33,0-13.28-5.94-13.29-13.27,0-.33,.01-.66,.04-.99l2.15-28.13,12.67-165.83c.62-8.09,7.32-14.37,15.43-14.46l267.59-2.71c6.25-.08,11.39,4.92,11.47,11.17v.09h0Z" fill="#f9c815"></path>
      <path d="M683.64,368.59H416.62c-7.6,0-13.78-6.18-13.78-13.77,0-.34,.01-.68,.04-1.02l14.82-193.96c.64-8.41,7.49-14.83,15.92-14.92l267.59-2.71h.16c6.44,0,11.73,5.2,11.81,11.66v.13l-12.29,171.74-2,28.64c-.57,7.97-7.27,14.22-15.26,14.22h.01Zm-267.01-1.01h267.01c7.47,0,13.73-5.83,14.26-13.29l2-28.64,12.29-171.74,.5,.04h0l-.5-.08c-.08-5.98-5.03-10.75-10.96-10.68l-267.59,2.71c-7.91,.09-14.33,6.11-14.94,14l-14.82,193.96c-.02,.31-.04,.63-.04,.95,0,7.04,5.74,12.77,12.78,12.77h.01Z" fill="#002346"></path>
    </g>
    <g>
      <rect x="407.45" y="558.41" width="17.38" height="13.99" fill="#fff"></rect>
      <path d="M425.33,572.9h-18.38v-14.99h18.38v14.99Zm-17.38-1h16.38v-12.99h-16.38v12.99Z" fill="#002346"></path>
    </g>
    <g>
      <rect x="464.68" y="558.41" width="17.38" height="13.99" fill="#fff"></rect>
      <path d="M482.56,572.9h-18.38v-14.99h18.38v14.99Zm-17.38-1h16.38v-12.99h-16.38v12.99Z" fill="#002346"></path>
    </g>
    <g>
      <rect x="644.4" y="557.99" width="17.38" height="13.99" fill="#fff"></rect>
      <path d="M662.28,572.48h-18.38v-14.99h18.38v14.99Zm-17.38-1h16.38v-12.99h-16.38v12.99Z" fill="#002346"></path>
    </g>
    <g>
      <rect x="695.69" y="557.99" width="17.38" height="13.99" fill="#fff"></rect>
      <path d="M713.57,572.48h-18.38v-14.99h18.38v14.99Zm-17.38-1h16.38v-12.99h-16.38v12.99Z" fill="#002346"></path>
    </g>
    <g>
      <rect x="395.58" y="443.54" width="241.19" height="116.57" fill="#fff"></rect>
      <path d="M637.27,560.61h-242.19v-117.57h242.19v117.57Zm-241.19-1h240.19v-115.57h-240.19v115.57Z" fill="#002346"></path>
    </g>
    <g>
      <rect x="636.77" y="443.12" width="83.08" height="116.78" fill="#e6e7e8"></rect>
      <path d="M720.35,560.4h-84.08v-117.78h84.08v117.78Zm-83.08-1h82.08v-115.78h-82.08v115.78Z" fill="#002346"></path>
    </g>
    <g>
      <polygon points="582.2 368.09 513.42 368.09 526.58 418.52 595.45 418.75 582.2 368.09" fill="#f9c815"></polygon>
      <path d="M596.1,419.25l-69.91-.23-.1-.37-13.32-51.06h69.81l13.51,51.66h.01Zm-69.13-1.23l67.83,.23-12.99-49.66h-67.75l12.9,49.43h0Z" fill="#002346"></path>
    </g>
    <g>
      <rect x="641.86" y="429.34" width="86.47" height="17.38" fill="#e6e7e8"></rect>
      <path d="M728.83,447.22h-87.47v-18.38h87.47v18.38h0Zm-86.47-1h85.47v-16.38h-85.47v16.38Z" fill="#002346"></path>
    </g>
    <g>
      <polygon points="554.96 457.53 543.1 471.52 490.11 471.52 478.67 457.53 405.33 457.53 405.33 548.66 627.02 548.66 627.02 457.53 554.96 457.53" fill="#e6e7e8"></polygon>
      <path d="M627.52,549.16h-222.69v-92.13h74.08l11.44,13.99h52.52l11.86-13.99h72.79v92.13Zm-221.69-1h220.69v-90.13h-71.33l-11.86,13.99h-53.46l-11.44-13.99h-72.6v90.13Z" fill="#002346"></path>
    </g>
    <g>
      <path d="M491.81,415.99h66.12v13.56h-66.12c-3.74,0-6.78-3.04-6.78-6.78h0c0-3.74,3.04-6.78,6.78-6.78Z" fill="#f9c815"></path>
      <path d="M558.43,430.05h-66.62c-4.01,0-7.28-3.27-7.28-7.28s3.27-7.28,7.28-7.28h66.62v14.56Zm-66.62-13.56c-3.46,0-6.28,2.82-6.28,6.28s2.82,6.28,6.28,6.28h65.62v-12.56h-65.62Z" fill="#002346"></path>
    </g>
    <g>
      <path d="M581.63,368.09l13.14,47.9h-36.55c-3.76,0-6.8,3.04-6.8,6.8h0c0,3.75,3.05,6.79,6.8,6.79h44.85c4.22,0,7.64-3.42,7.64-7.64,0-.67-.09-1.33-.26-1.98l-13.94-51.87h-14.88Z" fill="#f9c815"></path>
      <path d="M603.07,430.08h-44.85c-4.02,0-7.29-3.27-7.3-7.29,0-4.03,3.27-7.3,7.3-7.3h35.89l-13.14-47.9h15.92l.1,.37,13.94,51.87c.19,.69,.28,1.4,.28,2.11,0,4.49-3.65,8.14-8.14,8.14Zm-44.85-13.59c-3.47,0-6.3,2.83-6.3,6.3s2.83,6.29,6.3,6.29h44.85c3.94,0,7.14-3.2,7.14-7.14,0-.62-.08-1.25-.24-1.85l-13.84-51.5h-13.84l13.14,47.9h-37.21Z" fill="#002346"></path>
    </g>
    <g>
      <path d="M701.69,153.96l-12.29,171.74-2,28.64c-.55,7.75-7,13.75-14.77,13.75H405.63c-7.33,0-13.28-5.94-13.29-13.27,0-.33,.01-.66,.04-.99l2.15-28.13,12.67-165.83c.62-8.09,7.32-14.37,15.43-14.46l267.59-2.71c6.25-.08,11.39,4.92,11.47,11.17v.09h0Z" fill="#f9c815"></path>
      <path d="M672.64,368.59H405.62c-7.6,0-13.78-6.18-13.78-13.77,0-.34,.01-.68,.04-1.02l14.82-193.96c.64-8.41,7.49-14.83,15.92-14.92l267.59-2.71c6.52-.04,11.89,5.14,11.97,11.66v.13l-12.29,171.74-2,28.64c-.57,7.97-7.27,14.22-15.26,14.22h.01Zm-267.01-1.01h267.01c7.47,0,13.73-5.83,14.26-13.29l2-28.64,12.29-171.74,.5,.04h0l-.5-.08c-.08-5.93-4.92-10.69-10.82-10.69h-.15l-267.59,2.71c-7.91,.09-14.33,6.11-14.94,14l-14.82,193.96c-.02,.31-.04,.63-.04,.95,0,7.04,5.74,12.77,12.78,12.77h.02Z" fill="#002346"></path>
    </g>
    <g>
      <path d="M689.4,325.7l-2,28.64c-.55,7.75-7,13.75-14.77,13.75H405.63c-7.33,0-13.28-5.94-13.29-13.27,0-.33,.01-.66,.04-.99l2.15-28.13h294.87Z" fill="#fff"></path>
      <path d="M672.64,368.59H405.62c-7.6,0-13.78-6.18-13.78-13.77,0-.34,.01-.68,.04-1.02l2.19-28.59h295.87l-2.04,29.17c-.57,7.97-7.27,14.22-15.26,14.22h0Zm-267.01-1.01h267.01c7.47,0,13.73-5.83,14.26-13.29l1.96-28.1H394.99l-2.11,27.67c-.02,.31-.04,.63-.04,.95,0,7.04,5.74,12.77,12.78,12.77h.01Z" fill="#002346"></path>
    </g>
    <path d="M540.34,354.6c-4.13,0-7.49-3.36-7.49-7.49s3.36-7.49,7.49-7.49,7.49,3.36,7.49,7.49-3.36,7.49-7.49,7.49Zm0-13.98c-3.58,0-6.49,2.91-6.49,6.49s2.91,6.49,6.49,6.49,6.49-2.91,6.49-6.49-2.91-6.49-6.49-6.49Z" fill="#002346"></path>
    <g>
      <polygon points="410 311.29 674.92 311.29 686.37 155.3 423.14 155.3 410 311.29" fill="#fff"></polygon>
      <path d="M675.38,311.79H409.45l.05-.54,13.18-156.45h264.23l-.04,.54-11.48,156.45h-.01Zm-264.84-1h263.91l11.38-154.99H423.6l-13.06,154.99Z" fill="#002346"></path>
    </g>
    <g>
      <path d="M677.82,87.63l-1.07,15.15-13.18,186.34c-.29,4.13-3.73,7.33-7.87,7.33h-219.77c-4.36,0-7.89-3.53-7.9-7.88,0-.21,0-.42,.03-.64l14.92-185.19,1.3-16.13c.27-3.34,3.06-5.91,6.41-5.91h220.72c3.55,0,6.42,2.86,6.43,6.41,0,.17,0,.35-.02,.52h0Z" fill="#ebebeb"></path>
      <path d="M435.92,296.95c-4.62,0-8.39-3.76-8.39-8.38,0-.23,0-.45,.03-.68l16.22-201.32c.29-3.57,3.32-6.37,6.91-6.37h220.73c3.81,0,6.91,3.1,6.92,6.91,0,.19,0,.37-.02,.56l-14.25,201.49c-.31,4.37-3.99,7.79-8.37,7.79h-219.78Zm14.76-215.75c-3.07,0-5.66,2.39-5.91,5.45l-16.22,201.32c-.02,.2-.02,.4-.02,.6,0,4.07,3.32,7.38,7.39,7.38h219.77c3.86,0,7.1-3.02,7.37-6.87l14.25-201.49c.01-.16,.02-.32,.02-.48,0-1.58-.62-3.07-1.74-4.18s-2.6-1.73-4.18-1.73h-220.73Z" fill="#002346"></path>
    </g>
    <path d="M677.82,87.63l-1.07,15.15h-233.77l1.3-16.13c.27-3.34,3.06-5.91,6.41-5.91h220.72c3.55,0,6.42,2.87,6.43,6.41,0,.16,0,.32-.02,.48h0Z" fill="#002346"></path>
    <g>
      <path d="M458.96,87.9h89.86c2.23,0,4.03,1.8,4.03,4.03h0c0,2.22-1.8,4.03-4.03,4.03h-89.86c-2.23,0-4.03-1.8-4.03-4.03h0c0-2.22,1.8-4.03,4.03-4.03h0Z" fill="#fff"></path>
      <path d="M548.82,96.45h-89.86c-2.5,0-4.53-2.03-4.53-4.53s2.03-4.52,4.53-4.52h89.86c2.5,0,4.53,2.03,4.53,4.52s-2.03,4.53-4.53,4.53Zm-89.86-8.05c-1.95,0-3.53,1.58-3.53,3.52s1.58,3.53,3.53,3.53h89.86c1.95,0,3.53-1.58,3.53-3.53s-1.58-3.52-3.53-3.52h-89.86Z" fill="#002346"></path>
    </g>
    <g>
      <circle cx="625.33" cy="92.14" r="3.39" fill="#fff"></circle>
      <path d="M625.33,96.03c-2.14,0-3.89-1.75-3.89-3.89s1.75-3.89,3.89-3.89,3.89,1.75,3.89,3.89-1.75,3.89-3.89,3.89Zm0-6.78c-1.59,0-2.89,1.3-2.89,2.89s1.3,2.89,2.89,2.89,2.89-1.3,2.89-2.89-1.3-2.89-2.89-2.89Z" fill="#002346"></path>
    </g>
    <g>
      <circle cx="641.86" cy="92.14" r="3.39" fill="#fff"></circle>
      <path d="M641.86,96.03c-2.14,0-3.89-1.75-3.89-3.89s1.75-3.89,3.89-3.89,3.89,1.75,3.89,3.89-1.75,3.89-3.89,3.89Zm0-6.78c-1.59,0-2.89,1.3-2.89,2.89s1.3,2.89,2.89,2.89,2.89-1.3,2.89-2.89-1.3-2.89-2.89-2.89Z" fill="#002346"></path>
    </g>
    <g>
      <circle cx="657.97" cy="92.14" r="3.39" fill="#fff"></circle>
      <path d="M657.97,96.03c-2.15,0-3.89-1.75-3.89-3.89s1.75-3.89,3.89-3.89,3.89,1.75,3.89,3.89-1.75,3.89-3.89,3.89Zm0-6.78c-1.59,0-2.89,1.3-2.89,2.89s1.3,2.89,2.89,2.89,2.89-1.3,2.89-2.89-1.3-2.89-2.89-2.89Z" fill="#002346"></path>
    </g>
    <g>
      <polygon points="607.95 200.23 575.74 249.4 518.51 249.4 516.94 246.36 492.23 198.54 524.87 148.94 578.11 149.33 582.52 149.37 607.95 200.23" fill="#dc6f50"></polygon>
      <path d="M576.01,249.9h-57.8l-26.55-51.39,.16-.24,32.79-49.83,58.23,.44,25.7,51.39-.16,.24-32.36,49.4h-.01Zm-57.2-1.01h56.65l31.9-48.7-25.16-50.33-4.1-.04-52.97-.39-32.33,49.13,26.01,50.33h0Z" fill="#002346"></path>
    </g>
    <g>
      <path d="M831.29,189.19l-.94,11-5.4,63.44c-.47,5.39-4.97,9.52-10.38,9.52h-134.23c-4.23,0-7.66-3.43-7.66-7.66,0-.23,.01-.46,.03-.69l5.84-64.56,.83-9.16c.35-3.95,3.65-6.98,7.61-7l139.26-.4c2.79,0,5.05,2.25,5.06,5.04,0,.16,0,.31-.02,.47h0Z" fill="#fff"></path>
      <path d="M680.34,273.65c-2.18,0-4.23-.85-5.77-2.39-1.54-1.54-2.39-3.59-2.39-5.77,0-.25,.01-.49,.03-.74l6.67-73.72c.37-4.23,3.86-7.44,8.11-7.46l139.26-.4h.01c1.48,0,2.87,.57,3.92,1.62,1.05,1.05,1.63,2.44,1.63,3.92,0,.17,0,.34-.02,.52l-6.34,74.44c-.49,5.69-5.17,9.98-10.88,9.98h-134.23Zm145.92-89.47h-.01l-139.26,.4c-3.73,0-6.79,2.83-7.11,6.54l-6.67,73.72c-.02,.21-.03,.43-.03,.65,0,1.91,.75,3.71,2.1,5.06s3.15,2.1,5.06,2.1h134.23c5.19,0,9.43-3.9,9.88-9.06l6.34-74.44c.01-.14,.02-.28,.02-.42,0-1.21-.48-2.36-1.34-3.21-.86-.85-2-1.33-3.21-1.33h0Z" fill="#002346"></path>
    </g>
    <g>
      <path d="M831.29,189.19l-.94,11h-151.8l.83-9.16c.35-3.95,3.65-6.98,7.61-7l139.26-.4c2.79,0,5.06,2.25,5.07,5.03,0,.18,0,.35-.03,.53Z" fill="#002346"></path>
      <path d="M830.81,200.69h-152.81l.88-9.71c.37-4.23,3.86-7.44,8.11-7.46l139.26-.4h.02c3.05,0,5.54,2.48,5.55,5.53,0,.19,0,.38-.03,.57l-.98,11.45v.02Zm-151.71-1h150.79l.9-10.55c.02-.16,.02-.31,.02-.47,0-2.5-2.05-4.53-4.55-4.53h-.01l-139.26,.4c-3.73,.02-6.79,2.83-7.11,6.54l-.78,8.62h0Z" fill="#002346"></path>
    </g>
    <g>
      <rect x="752.07" y="188.36" width="69.94" height="7.63" rx="3.81" ry="3.81" fill="#fff"></rect>
      <path d="M818.2,196.49h-62.32c-2.38,0-4.31-1.93-4.31-4.31s1.93-4.32,4.31-4.32h62.32c2.38,0,4.31,1.93,4.31,4.31s-1.93,4.32-4.31,4.32Zm-62.32-7.63c-1.83,0-3.31,1.48-3.31,3.31s1.49,3.32,3.31,3.32h62.32c1.83,0,3.31-1.48,3.31-3.31s-1.49-3.32-3.31-3.32h-62.32Z" fill="#002346"></path>
    </g>
    <g>
      <circle cx="691.03" cy="191.75" r="3.39" fill="#fff"></circle>
      <path d="M691.03,195.64c-2.14,0-3.89-1.75-3.89-3.89s1.75-3.89,3.89-3.89,3.89,1.75,3.89,3.89-1.75,3.89-3.89,3.89Zm0-6.78c-1.59,0-2.89,1.3-2.89,2.89s1.3,2.89,2.89,2.89,2.89-1.3,2.89-2.89-1.3-2.89-2.89-2.89Z" fill="#002346"></path>
    </g>
    <g>
      <circle cx="704.17" cy="192.18" r="3.39" fill="#fff"></circle>
      <path d="M704.17,196.07c-2.14,0-3.89-1.75-3.89-3.89s1.75-3.89,3.89-3.89,3.89,1.75,3.89,3.89-1.75,3.89-3.89,3.89Zm0-6.78c-1.59,0-2.89,1.3-2.89,2.89s1.3,2.89,2.89,2.89,2.89-1.3,2.89-2.89-1.3-2.89-2.89-2.89Z" fill="#002346"></path>
    </g>
    <g>
      <circle cx="715.62" cy="192.18" r="3.39" fill="#fff"></circle>
      <path d="M715.62,196.07c-2.14,0-3.89-1.75-3.89-3.89s1.75-3.89,3.89-3.89,3.89,1.75,3.89,3.89-1.75,3.89-3.89,3.89Zm0-6.78c-1.59,0-2.89,1.3-2.89,2.89s1.3,2.89,2.89,2.89,2.89-1.3,2.89-2.89-1.3-2.89-2.89-2.89Z" fill="#002346"></path>
    </g>
    <g>
      <path d="M727.68,249.4h-42.82c-.86,0-1.55-.69-1.55-1.55,0-.06,0-.12,.01-.18,.03-.28,.14-.55,.31-.77l23.83-30.9,.06-.07c.56-.65,1.54-.71,2.19-.15,.12,.1,.22,.22,.3,.36l19,30.9c.45,.73,.22,1.68-.51,2.13-.25,.15-.53,.23-.82,.23Z" fill="#fff"></path>
      <path d="M727.69,249.9h-42.83c-1.13,0-2.05-.92-2.05-2.05,0-.08,0-.16,.01-.24,.04-.37,.19-.72,.41-1.02l23.91-31c.36-.41,.86-.66,1.41-.7s1.07,.14,1.49,.5c.15,.13,.29,.29,.4,.47l19,30.9c.59,.96,.29,2.23-.68,2.82-.32,.2-.69,.3-1.07,.3v.02Zm-42.83-1h42.83c.19,0,.38-.05,.55-.15,.49-.3,.65-.95,.35-1.44l-19-30.9c-.06-.09-.13-.17-.21-.24-.21-.18-.47-.27-.76-.26-.28,.02-.54,.15-.72,.36l-23.87,30.95c-.11,.15-.19,.33-.21,.52v.12c0,.58,.47,1.05,1.05,1.05h0Z" fill="#002346"></path>
    </g>
    <g>
      <path d="M457.89,141.22l-2.43,23.74c-.3,2.94-2.78,5.18-5.74,5.18h-134.5c-2.21,0-4.01-1.77-4.02-3.98,0-.14,0-.28,.02-.42v-.26l2.58-26.08c.21-2.05,1.94-3.61,4-3.6h134.67c2.99,0,5.42,2.43,5.42,5.42h0Z" fill="#dc6f50"></path>
      <path d="M315.19,170.64c-2.47,0-4.49-2-4.5-4.48,0-.16,0-.32,.02-.47v-.21l2.58-26.13c.23-2.31,2.16-4.05,4.48-4.05h134.69c3.26,0,5.92,2.66,5.92,5.92v.05l-2.43,23.74c-.33,3.21-3.01,5.63-6.24,5.63h-134.52Zm2.58-34.34c-1.81,0-3.3,1.35-3.49,3.15l-2.58,26.08v.21c-.01,.17-.02,.29-.02,.42,0,1.92,1.58,3.48,3.5,3.48h134.52c2.71,0,4.96-2.03,5.24-4.73l2.43-23.71c-.01-2.7-2.22-4.9-4.92-4.9h-134.68Z" fill="#002346"></path>
    </g>
    <path d="M338.56,149.72h0c-.12,0-.21-.1-.2-.22h0s.19-3.38,.19-3.38c-.14-2.2-2.05-3.87-4.25-3.73-1.82,.12-3.32,1.45-3.67,3.24l-.19,3.79c0,.12-.1,.21-.22,.21s-.21-.1-.2-.22h0s.19-3.8,.19-3.8c.23-2.41,2.36-4.18,4.77-3.95,2.29,.21,4.02,2.16,3.97,4.45l-.2,3.37c.02,.11-.06,.22-.18,.24h0Z" fill="#002346"></path>
    <path d="M326.49,149.37l-.85,11h15.26l.85-11h-15.26Zm7.82,5.88l-.07,1.76h-.85l.07-1.77c-.62-.21-1.03-.8-1-1.45,.02-.82,.71-1.47,1.53-1.45s1.47,.71,1.45,1.53c-.02,.67-.48,1.24-1.13,1.4v-.03h0Z" fill="#002346"></path>
    <g>
      <rect x="386.89" y="429.34" width="255.18" height="17.38" fill="#fff"></rect>
      <path d="M642.57,447.22H386.39v-18.38h256.18v18.38Zm-255.18-1h254.18v-16.38h-254.18v16.38Z" fill="#002346"></path>
    </g>
    <path d="M516.33,189.82v-4.4l10.09-14.43h6.1v14.11h2.61v4.72h-2.61v4.15h-5.46v-4.15h-10.73Zm11.11-12.83l-5.36,8.11h5.36v-8.11Z" fill="#fff"></path>
    <path d="M539.94,173.35c1.41-2.11,3.7-3.16,6.85-3.16s5.43,1.05,6.84,3.16c1.41,2.11,2.13,5,2.13,8.65s-.71,6.61-2.13,8.72-3.69,3.16-6.84,3.16-5.44-1.05-6.85-3.16-2.12-5-2.12-8.72,.7-6.54,2.12-8.65Zm9.75,3.69c-.86-1.6-2.87-2.2-4.47-1.34-.57,.31-1.03,.77-1.34,1.34-.54,1.61-.78,3.3-.7,5-.02,1.2,.06,2.4,.25,3.59,.11,.84,.46,1.64,1,2.3,1.32,1.17,3.31,1.17,4.63,0,.54-.66,.89-1.46,1-2.3,.19-1.19,.27-2.39,.25-3.59,.1-1.69-.11-3.39-.62-5Z" fill="#fff"></path>
    <path d="M558.76,189.82v-4.4l10.09-14.43h6.09v14.11h2.62v4.72h-2.62v4.15h-5.46v-4.15h-10.72Zm11.11-12.83l-5.37,8.11h5.37v-8.11Z" fill="#fff"></path>
    <path d="M511.34,195.39v10.37h9.38v.58h-9.38v10.37h10.34v.58h-11v-22.48h11v.58h-10.34Z" fill="#fff"></path>
    <path d="M535.34,199.63v.7h-.28c-1.68-.04-3.32,.52-4.62,1.58-1.26,1.05-1.9,2.75-1.9,5.09v10.25h-.64v-17.2h.64v4.18c.68-3.07,2.95-4.6,6.8-4.6h0Z" fill="#fff"></path>
    <path d="M548.05,199.63v.7h-.29c-1.68-.05-3.32,.51-4.61,1.58-1.27,1.05-1.9,2.75-1.9,5.09v10.25h-.62v-17.2h.64v4.18c.67-3.07,2.93-4.6,6.78-4.6h0Z" fill="#fff"></path>
    <path d="M556.63,216.44c-1.27-.71-2.31-1.77-3-3.06-1.47-2.97-1.47-6.45,0-9.42,.69-1.29,1.73-2.35,3-3.07,2.7-1.41,5.92-1.41,8.62,0,1.27,.72,2.31,1.78,3,3.07,1.44,2.97,1.44,6.45,0,9.42-.69,1.29-1.73,2.35-3,3.06-2.7,1.43-5.92,1.43-8.62,0Zm8.14-.41c1.19-.63,2.17-1.59,2.84-2.76,1.44-2.9,1.44-6.3,0-9.2-.67-1.17-1.65-2.13-2.84-2.76-2.42-1.21-5.26-1.21-7.68,0-1.2,.63-2.2,1.6-2.86,2.78-1.44,2.88-1.44,6.28,0,9.16,.67,1.18,1.66,2.15,2.86,2.78,2.42,1.21,5.26,1.21,7.68,0h0Z" fill="#fff"></path>
    <path d="M583.33,199.63v.7h-.29c-1.68-.04-3.32,.52-4.62,1.58-1.26,1.05-1.89,2.75-1.89,5.09v10.25h-.64v-17.2h.64v4.18c.68-3.04,2.94-4.6,6.8-4.6h0Z" fill="#fff"></path>
    <path d="M739.63,220.88v11.24h10.2v.62h-10.2v11.25h11.21v.64h-11.88v-24.38h11.91v.63h-11.24Z" fill="#002346"></path>
    <path d="M763.63,225.51v.76h-.31c-1.82-.05-3.6,.56-5,1.72-1.38,1.14-2.06,3-2.06,5.51v11.13h-.69v-18.7h.69v4.53c.72-3.3,3.18-4.95,7.37-4.95Z" fill="#002346"></path>
    <path d="M775.29,225.51v.76h-.31c-1.82-.05-3.6,.56-5,1.72-1.37,1.14-2.05,2.98-2.06,5.51v11.13h-.69v-18.7h.69v4.53c.74-3.3,3.2-4.95,7.37-4.95Z" fill="#002346"></path>
    <path d="M782.52,243.69c-1.38-.77-2.52-1.93-3.27-3.32-1.59-3.21-1.59-6.99,0-10.2,.75-1.4,1.89-2.55,3.27-3.33,2.92-1.53,6.42-1.53,9.34,0,1.38,.77,2.52,1.93,3.26,3.33,1.56,3.22,1.56,6.98,0,10.2-.74,1.4-1.88,2.55-3.26,3.32-2.92,1.54-6.42,1.54-9.34,0Zm8.82-.45c1.3-.68,2.37-1.72,3.08-3,1.59-3.14,1.59-6.86,0-10-.72-1.28-1.79-2.32-3.08-3-1.28-.66-2.71-1.01-4.15-1-1.45,0-2.88,.34-4.17,1-1.3,.68-2.37,1.72-3.09,3-1.58,3.12-1.58,6.81,0,9.93,.71,1.28,1.79,2.33,3.09,3,1.29,.66,2.72,1.01,4.17,1,1.44,.03,2.86-.29,4.15-.93h0Z" fill="#002346"></path>
    <path d="M809.37,225.51v.76h-.31c-1.82-.05-3.6,.56-5,1.72-1.37,1.14-2.05,2.98-2.06,5.51v11.13h-.69v-18.7h.69v4.53c.74-3.3,3.2-4.95,7.37-4.95Z" fill="#002346"></path>
    <path d="M813.33,244.42c-.35-.38-.35-.97,0-1.35,.36-.35,.92-.35,1.28,0,.35,.38,.35,.97,0,1.35-.36,.35-.92,.35-1.28,0Zm1-24.17l-.11,18.93h-.59l-.1-18.93h.8Z" fill="#002346"></path>
    <g>
      <path d="M705.41,243.57c-.41-.39-.63-.94-.61-1.51-.01-.57,.21-1.12,.61-1.52,.4-.4,.95-.62,1.52-.61,.56,0,1.09,.21,1.48,.61,.41,.4,.63,.95,.62,1.52,.02,.57-.21,1.12-.62,1.51-.39,.4-.92,.63-1.48,.62-.57,0-1.12-.21-1.52-.62Zm3.22-19.84l-.38,14.13h-2.77l-.38-14.13h3.53Z" fill="#dc6f50"></path>
      <path d="M706.87,244.69c-.67,0-1.33-.28-1.81-.77-.51-.49-.78-1.18-.76-1.88-.02-.67,.26-1.36,.76-1.86,.5-.49,1.18-.76,1.88-.76,.64-.02,1.35,.26,1.83,.76,.49,.48,.78,1.17,.76,1.88,.02,.68-.26,1.37-.78,1.86-.46,.49-1.08,.77-1.83,.76h-.05Zm.04-4.25c-.44,0-.85,.17-1.15,.47-.3,.3-.47,.72-.46,1.15-.02,.46,.15,.87,.46,1.16h0c.3,.32,.74,.5,1.15,.48,.41,0,.84-.16,1.13-.46,.33-.31,.5-.72,.48-1.15,0-.46-.16-.88-.47-1.18-.3-.31-.72-.49-1.12-.47h-.02Zm1.82-2.07h-3.74l-.41-15.13h4.56l-.41,15.13h0Zm-2.77-1h1.8l.35-13.13h-2.5l.35,13.13h0Z" fill="#002346"></path>
    </g>
    <path d="M359.63,152.4c.47,.66,.66,1.48,.52,2.28-.14,1.05-.68,2-1.52,2.65-1.02,.72-2.25,1.07-3.49,1h-4.07l1.95-13.77h4.07c1.08-.11,2.17,.23,3,.93,.61,.66,.86,1.56,.68,2.44-.09,.83-.46,1.6-1.06,2.19-.55,.53-1.25,.9-2,1.05,.78,.14,1.47,.58,1.92,1.23h0Zm-7.12-1.41h3.79c1.01,.06,2-.22,2.83-.8,.7-.55,1.15-1.36,1.25-2.24,.17-.78-.06-1.6-.62-2.17-.77-.62-1.75-.91-2.73-.81h-3.67l-.85,6.02h0Zm5.82,6.09c.79-.57,1.3-1.44,1.42-2.4,.18-.88-.11-1.79-.77-2.4-.82-.65-1.86-.97-2.9-.89h-3.62l-.93,6.57h3.67c1.12,.06,2.24-.25,3.17-.88h-.04Z" fill="#002346"></path>
    <path d="M367.26,143.89l-2.05,14.47h-.4l2.05-14.47h.4Z" fill="#002346"></path>
    <path d="M373.22,157.86c-.73-.44-1.31-1.09-1.64-1.88-.35-.92-.45-1.92-.28-2.89,.12-1.04,.5-2.03,1.1-2.88,.56-.8,1.3-1.44,2.17-1.88,.87-.43,1.84-.66,2.81-.65,.92,0,1.83,.22,2.63,.66,.73,.43,1.3,1.09,1.63,1.88,.35,.92,.44,1.92,.27,2.89-.12,1.03-.5,2.02-1.09,2.88-.55,.8-1.29,1.45-2.16,1.88-.87,.43-1.84,.66-2.81,.65-.92,0-1.83-.22-2.63-.66Zm5.18-.25c.8-.39,1.48-.97,2-1.69,.59-.83,.96-1.8,1.08-2.81,.18-.95,.08-1.93-.29-2.82-.32-.71-.87-1.3-1.56-1.66-.72-.38-1.52-.58-2.34-.56-.87,0-1.73,.18-2.51,.55-.8,.39-1.48,.98-2,1.7-.59,.83-.96,1.79-1.08,2.8-.18,.95-.07,1.92,.29,2.81,.32,.72,.87,1.32,1.56,1.7,.72,.38,1.53,.58,2.35,.56,.86,0,1.72-.19,2.5-.56v-.02h0Z" fill="#002346"></path>
    <path d="M387.83,150.22c.54-.79,1.27-1.44,2.13-1.87,.87-.43,1.82-.65,2.79-.64,1.17-.08,2.33,.28,3.25,1,.78,.68,1.22,1.66,1.22,2.69h-.4c0-.96-.42-1.86-1.16-2.47-.86-.64-1.93-.96-3-.9-.86,0-1.71,.18-2.48,.55-.8,.39-1.49,.97-2,1.69-.58,.84-.94,1.81-1.06,2.82-.18,.94-.09,1.92,.27,2.81,.3,.72,.84,1.32,1.52,1.7,.72,.38,1.52,.57,2.33,.56,1.14,.02,2.25-.29,3.21-.9,.9-.56,1.56-1.44,1.86-2.46h.4c-.34,1.1-1.04,2.05-2,2.69-1.05,.69-2.28,1.04-3.54,1-.91,.02-1.81-.2-2.61-.65-.73-.43-1.29-1.09-1.6-1.88-.34-.92-.43-1.92-.26-2.89,.15-1.02,.54-2,1.13-2.85h0Z" fill="#002346"></path>
    <path d="M406.99,158.43l-4.31-5-.7,4.95h-.41l2.06-14.43h.4l-1.23,8.74,5.59-4.82h.59l-6.1,5.23,4.69,5.33h-.58Z" fill="#002346"></path>
    <path d="M419.92,157.33c.9-.56,1.56-1.44,1.86-2.46h.4c-.34,1.1-1.04,2.05-2,2.69-1.05,.7-2.28,1.05-3.54,1-.91,.02-1.81-.2-2.61-.65-.73-.43-1.29-1.09-1.59-1.88-.35-.92-.44-1.92-.27-2.89,.13-1.04,.5-2.03,1.08-2.9,.54-.79,1.27-1.44,2.13-1.87,.87-.43,1.82-.65,2.79-.64,.92-.04,1.83,.19,2.63,.66,.65,.39,1.16,.99,1.46,1.69,.29,.69,.38,1.45,.27,2.19-.07,.47-.13,.82-.17,1.06h-9.81c-.16,.92-.05,1.86,.31,2.72,.32,.7,.86,1.27,1.53,1.64,.71,.37,1.5,.55,2.3,.54,1.14,.03,2.27-.29,3.23-.9h0Zm-4.23-8.7c-.79,.37-1.48,.93-2,1.63-.59,.8-.96,1.74-1.08,2.72h9.47c.23-.9,.18-1.85-.15-2.72-.3-.7-.83-1.28-1.5-1.63-.71-.37-1.49-.55-2.29-.54-.85,0-1.68,.19-2.45,.54Z" fill="#002346"></path>
    <path d="M428.33,150.3c.54-.8,1.28-1.45,2.14-1.88,.89-.44,1.86-.66,2.85-.65,1.09-.02,2.15,.33,3,1,.76,.6,1.26,1.47,1.4,2.42l1-7.13h.38l-2,14.47h-.38l.45-3.24c-.44,1-1.16,1.84-2.08,2.43-.98,.64-2.14,.97-3.31,.94-.93,.02-1.86-.2-2.67-.66-.74-.42-1.3-1.09-1.6-1.88-.34-.92-.43-1.91-.26-2.88,.12-1.05,.49-2.06,1.08-2.94h0Zm8.88,.25c-.29-.74-.82-1.37-1.5-1.79-.74-.44-1.58-.66-2.44-.64-.93-.02-1.84,.19-2.67,.61-.81,.39-1.5,.99-2,1.74-.53,.82-.88,1.74-1,2.71-.16,.91-.08,1.84,.22,2.71,.27,.73,.79,1.35,1.46,1.75,.76,.43,1.63,.64,2.5,.61,.91,0,1.81-.21,2.62-.63,.8-.42,1.49-1.03,2-1.78,.54-.79,.88-1.69,1-2.64,.18-.88,.11-1.8-.19-2.65h0Z" fill="#002346"></path>
    <g>
      <polygon points="124.8 570.74 97.18 570.74 97.18 425.15 93.15 425.15 93.15 570.74 66.68 570.74 62.65 570.74 62.65 574.19 62.65 582.82 66.68 582.82 66.68 574.19 124.8 574.19 124.8 582.82 128.83 582.82 128.83 574.19 128.83 570.74 124.8 570.74" fill="#fff"></polygon>
      <path d="M129.33,583.32h-5.03v-8.63h-57.12v8.63h-5.03v-13.08h30.5v-145.59h5.03v145.59h31.65v13.08Zm-4.03-1h3.03v-11.08h-31.65v-145.59h-3.03v145.59h-30.5v11.08h3.03v-8.63h59.12v8.63Z" fill="#002346"></path>
    </g>
    <g>
      <circle cx="126.81" cy="590.02" r="9.49" transform="translate(-470.72 674.69) rotate(-85.93)" fill="#002346"></circle>
      <path d="M126.81,600.01c-5.51,0-9.99-4.48-9.99-9.99s4.48-9.99,9.99-9.99,9.99,4.48,9.99,9.99-4.48,9.99-9.99,9.99Zm0-18.98c-4.96,0-8.99,4.03-8.99,8.99s4.03,8.99,8.99,8.99,8.99-4.03,8.99-8.99-4.03-8.99-8.99-8.99Z" fill="#002346"></path>
    </g>
    <g>
      <circle cx="126.81" cy="590.02" r="6.62" fill="#fff"></circle>
      <path d="M126.81,597.14c-3.93,0-7.12-3.19-7.12-7.12s3.19-7.12,7.12-7.12,7.12,3.19,7.12,7.12-3.19,7.12-7.12,7.12Zm0-13.24c-3.38,0-6.12,2.75-6.12,6.12s2.75,6.12,6.12,6.12,6.12-2.75,6.12-6.12-2.75-6.12-6.12-6.12Z" fill="#002346"></path>
    </g>
    <g>
      <path d="M229.53,533.91l12.1,53.52s5.18,2.3,19.57,2.87c0,0-3.45-7.48,1.72-10.93l-10.35-48.91-23.04,3.45h0Z" fill="#f2b3c1"></path>
      <path d="M261.99,590.83l-.81-.03c-14.32-.57-19.54-2.82-19.75-2.91l-.23-.1-.05-.24-12.22-54.04,24.04-3.6,10.52,49.7-.28,.19c-4.75,3.17-1.58,10.23-1.54,10.3l.34,.74h-.02Zm-19.93-3.78c1.12,.42,6.46,2.17,18.39,2.71-.72-2.01-2.21-7.59,1.91-10.62l-10.18-48.13-22.04,3.3,11.92,52.74h0Z" fill="#002346"></path>
    </g>
    <g>
      <path d="M242.56,598.27l-.93-10.84c6.41,1.63,12.97,2.59,19.57,2.87,0,0-4-7.48,1.72-10.93,0,0,3.53-3.52,9,2.92,2.17,2.51,4.89,4.5,7.94,5.82l25.54,11.26c.34,.14,.51,.53,.37,.87-.11,.26-.36,.42-.64,.42h-60c-1.35-.01-2.46-1.05-2.57-2.39h0Z" fill="#dc6f50"></path>
      <path d="M305.14,601.16h-60.02c-1.62-.01-2.94-1.24-3.07-2.85l-.99-11.54,.68,.17c6.1,1.55,12.37,2.5,18.65,2.82-.86-2.08-2.66-7.81,2.21-10.79,.25-.22,1.39-1.12,3.17-1.05,2.11,.09,4.3,1.45,6.51,4.05,2.11,2.44,4.79,4.41,7.76,5.68l25.54,11.26c.28,.11,.5,.34,.62,.63s.12,.61,0,.9c-.18,.44-.61,.73-1.08,.73h.02Zm-.02-1.01h0c.08,0,.14-.04,.17-.1,.02-.06,0-.11,0-.13s-.04-.07-.09-.09l-25.55-11.27c-3.1-1.33-5.91-3.39-8.12-5.95-1.99-2.34-3.98-3.62-5.77-3.7-1.57-.07-2.47,.78-2.51,.81l-.09,.07c-5.24,3.16-1.69,9.98-1.54,10.27l.41,.77-.87-.04c-6.39-.27-12.78-1.18-18.99-2.71l.87,10.14c.09,1.09,.98,1.92,2.08,1.93h60Z" fill="#002346"></path>
    </g>
    <g>
      <path d="M136.31,535.06l-5.76,55.24h17.84s.58-9.2,6.91-10.35l5.18-55.82-24.17,10.93Z" fill="#f2b3c1"></path>
      <path d="M148.86,590.8h-18.86l5.85-56.08,25.21-11.4-5.29,57.05-.37,.07c-5.88,1.07-6.5,9.8-6.5,9.89l-.03,.47h-.01Zm-17.75-1h16.83c.21-1.92,1.36-8.96,6.9-10.26l5.07-54.6-23.12,10.46-5.67,54.4h-.01Z" fill="#002346"></path>
    </g>
    <g>
      <path d="M189.56,599.34c-6.79-3-22.67-10.58-28-18.55-1.38-2.12-4.19-2.75-6.34-1.42-3.33,2.09-7.15,5.66-6.82,10.93h-17.85l-2.64,8.82c-.36,1.05,.21,2.18,1.25,2.54,.24,.08,.5,.12,.75,.1l59.37-1c.39,.08,.77-.18,.85-.57s-.18-.77-.57-.85h0Z" fill="#dc6f50"></path>
      <path d="M129.79,602.27c-.26,0-.54-.04-.8-.13-1.3-.44-2.01-1.86-1.56-3.17l2.74-9.16h17.7c-.07-5.24,3.78-8.78,7.07-10.85,2.4-1.48,5.49-.79,7.02,1.57,5.21,7.78,21.1,15.41,27.74,18.35,.63,.16,1.03,.78,.9,1.42-.13,.64-.74,1.07-1.38,.97l-59.32,1h-.11Zm1.13-11.46l-2.53,8.46c-.27,.8,.15,1.65,.93,1.92,.18,.06,.37,.09,.56,.08l59.44-1h.05c.11,.03,.24-.05,.26-.17,.02-.12-.06-.24-.18-.26l-.1-.03c-8.32-3.67-23.04-10.99-28.21-18.73-1.24-1.91-3.73-2.46-5.66-1.27-3.18,1.99-6.9,5.43-6.58,10.47l.03,.53h-18.01Z" fill="#002346"></path>
    </g>
    <g>
      <circle cx="64.66" cy="590.02" r="9.49" fill="#002346"></circle>
      <path d="M64.66,600.01c-5.51,0-9.99-4.48-9.99-9.99s4.48-9.99,9.99-9.99,9.99,4.48,9.99,9.99-4.48,9.99-9.99,9.99Zm0-18.98c-4.96,0-8.99,4.03-8.99,8.99s4.03,8.99,8.99,8.99,8.99-4.03,8.99-8.99-4.03-8.99-8.99-8.99Z" fill="#002346"></path>
    </g>
    <g>
      <circle cx="64.66" cy="590.02" r="6.62" fill="#fff"></circle>
      <path d="M64.66,597.14c-3.93,0-7.12-3.19-7.12-7.12s3.19-7.12,7.12-7.12,7.12,3.19,7.12,7.12-3.19,7.12-7.12,7.12Zm0-13.24c-3.38,0-6.12,2.75-6.12,6.12s2.75,6.12,6.12,6.12,6.12-2.75,6.12-6.12-2.75-6.12-6.12-6.12Z" fill="#002346"></path>
    </g>
    <g>
      <path d="M57.18,402.71h79.7v24.74H57.18c-6.83,0-12.37-5.54-12.37-12.37h0c0-6.83,5.54-12.37,12.37-12.37Z" fill="#fff"></path>
      <path d="M137.38,427.95H57.18c-7.1,0-12.87-5.77-12.87-12.87s5.77-12.87,12.87-12.87h80.2v25.74Zm-80.2-24.74c-6.54,0-11.87,5.32-11.87,11.87s5.33,11.87,11.87,11.87h79.2v-23.74s-79.2,0-79.2,0Z" fill="#002346"></path>
    </g>
    <g>
      <path d="M87.97,339.99s-57,77.11,50.06,62.14c0,0-25.89,66.76-16.68,137h147.28s-11.55-131.22-29.84-175.5c-2.51-6.03-7.87-10.39-14.28-11.62l-70.94-13.78-65.6,1.76h0Z" fill="#f9c815"></path>
      <path d="M269.17,539.63H120.91l-.06-.44c-8.58-65.48,13.57-128.7,16.41-136.46-33.52,4.57-54.33,.49-61.84-12.14-11.24-18.89,11.18-49.61,12.14-50.91l.15-.2h.24l65.65-1.77h.05l70.94,13.79c6.59,1.26,12.07,5.72,14.65,11.92,18.11,43.84,29.76,174.33,29.88,175.65l.05,.54v.02Zm-147.39-1h146.29c-.84-9.28-12.3-132.55-29.76-174.81-2.45-5.89-7.65-10.12-13.91-11.32l-70.89-13.77-65.3,1.75c-1.92,2.69-22.39,32.05-11.95,49.61,7.35,12.35,28.1,16.23,61.68,11.54l.84-.12-.31,.79c-.26,.67-25.63,67.17-16.71,136.32h.02Z" fill="#002346"></path>
    </g>
    <g>
      <polygon points="69.55 600.66 76.46 600.66 158.17 352.65 150.69 352.07 69.55 600.66" fill="#e6e7e8"></polygon>
      <path d="M76.82,601.16h-7.96l81.48-249.62,8.51,.66-.2,.61-81.82,248.35h0Zm-6.58-1h5.86l81.4-247.06-6.45-.5-80.8,247.56h-.01Z" fill="#002346"></path>
    </g>
    <g>
      <polygon points="387.2 599.51 380.3 599.51 298.58 351.5 306.06 350.92 387.2 599.51" fill="#e6e7e8"></polygon>
      <path d="M387.89,600.01h-7.95l-82.03-248.96,8.51-.66,.12,.37,81.35,249.25Zm-7.23-1h5.85l-80.8-247.56-6.45,.5,81.41,247.06h-.01Z" fill="#002346"></path>
    </g>
    <g>
      <path d="M293.4,250.79s9.79-4.6,4.61,3.46c0,0,4.6,1.15-4,4.6,0,0-8.7,1.9-13.56,5.84l-2-7.57,14.95-6.33Z" fill="#f2b3c1"></path>
      <path d="M280.16,265.57l-2.31-8.74,15.34-6.5c.86-.4,5.11-2.28,6.45-.76,.72,.82,.44,2.23-.89,4.42,.43,.22,.94,.61,.98,1.25,.05,.77-.46,2.03-5.54,4.07-.17,.04-8.72,1.95-13.43,5.76l-.6,.49h0Zm-1.12-8.14l1.7,6.42c4.96-3.65,12.82-5.4,13.16-5.47,4.76-1.92,4.84-2.94,4.83-3.05-.02-.24-.51-.49-.85-.58l-.67-.17,.37-.58c1.8-2.8,1.45-3.57,1.3-3.74-.63-.71-3.52,.18-5.28,1.01h-.02l-14.55,6.17h.01Z" fill="#002346"></path>
    </g>
    <g>
      <path d="M189.82,285.32l11.51,16.69,60.42-40.86s9.21-6.33,15.54-8.06l20.52-8.94c.97-.42,2.1,.02,2.53,.99,.02,.05,.04,.11,.06,.17h0c.28,.85-.06,1.78-.82,2.24-5.24,3.21-24.23,15.37-18.26,19.35,0,0,4.09,1.37,9-1.56,.49-.31,1.14-.16,1.45,.33,.2,.32,.21,.72,.03,1.06-1.05,2-4,4.85-11.66,8.23,0,0-31.08,13.81-49.49,37.41,0,0-27.62,35.67-42.58,17.83l-25.11-25.28,1.51-2.34,25.35-17.26h0Z" fill="#f2b3c1"></path>
      <path d="M198.24,335.7c-4.13,0-7.68-1.74-10.56-5.17l-25.37-25.53,1.87-2.82,25.76-17.54,11.51,16.69,60.01-40.58c.38-.26,9.35-6.4,15.69-8.13l20.45-8.92c.59-.26,1.25-.27,1.85-.03s1.08,.69,1.33,1.29c.03,.07,.06,.14,.08,.21,.36,1.07-.07,2.24-1.04,2.82-9.22,5.65-19.09,13.05-19.17,16.89-.01,.64,.27,1.16,.87,1.57,.51,.15,4.21,1.05,8.53-1.53,.72-.45,1.67-.23,2.13,.5,.29,.47,.31,1.07,.05,1.56-1.45,2.76-5.46,5.61-11.9,8.45-.31,.14-31.18,14.03-49.3,37.26-.72,.93-17.77,22.73-32.51,23.02h-.28Zm-34.65-30.85l24.83,24.99c2.77,3.3,6.14,4.91,10.09,4.85,14.26-.28,31.57-22.41,31.74-22.63,18.28-23.43,49.37-37.42,49.68-37.56,7.76-3.42,10.5-6.24,11.42-8.01,.1-.18,.09-.39-.01-.56-.16-.26-.5-.34-.76-.17-5.06,3.02-9.25,1.67-9.42,1.61l-.12-.06c-.93-.62-1.39-1.45-1.37-2.46,.1-5.2,13.77-14.13,19.65-17.73,.57-.35,.82-1.03,.61-1.65-.01-.04-.03-.09-.05-.13-.15-.35-.43-.61-.78-.75s-.74-.13-1.09,.02l-20.52,8.94c-6.24,1.71-15.36,7.95-15.46,8.01l-60.83,41.14-11.51-16.69-24.85,16.92-1.24,1.92h0Z" fill="#002346"></path>
    </g>
    <g>
      <path d="M106.38,248.49s-31.07,.58-43.15,25.9l-12.66,27,37.4,4.61v33.95l65.6-1.73,6.33-29.92c2.06-1.43,3.66-3.43,4.6-5.76l25.32-17.26s-12.08-30.5-46-35.1l-30.5-1.73-6.94,.04h0Z" fill="#dc6f50"></path>
      <path d="M87.47,340.47v-34.02l-37.65-4.64,12.95-27.62c12.08-25.31,43.28-26.18,43.59-26.19l6.95-.04,30.53,1.73c33.86,4.59,46.31,35.11,46.44,35.41l.15,.37-25.53,17.4c-.96,2.3-2.53,4.27-4.56,5.73l-6.37,30.11h-.39l-66.11,1.75h0Zm-36.16-39.48l37.16,4.58v33.88l64.69-1.71,6.29-29.73,.16-.11c1.99-1.38,3.51-3.3,4.42-5.54l.06-.14,25.11-17.11c-1.52-3.46-14.22-30.19-45.45-34.42l-30.46-1.73-6.91,.04c-.48,0-30.93,.94-42.71,25.62l-12.37,26.37h0Z" fill="#002346"></path>
    </g>
    <g>
      <polygon points="245.64 282.44 218.02 341.14 169.89 340.44 169.89 348.99 321.02 348.99 353.25 283.59 245.64 282.44" fill="#dc6f50"></polygon>
      <path d="M321.33,349.49H169.39v-9.56l48.31,.7,27.62-58.7,108.72,1.16-32.72,66.39h.01Zm-150.94-.99h150.32l31.74-64.41-106.49-1.14-27.62,58.7-47.95-.7v7.54h0Z" fill="#002346"></path>
    </g>
    <path d="M282.01,324.26c-1.58,0-2.93-.51-3.91-1.49-1.32-1.32-1.78-3.31-1.3-5.62,.46-2.23,1.76-4.5,3.65-6.39s4.16-3.19,6.39-3.65c2.3-.48,4.3-.02,5.62,1.3s1.78,3.31,1.3,5.62c-.46,2.23-1.76,4.5-3.65,6.39s-4.16,3.19-6.39,3.65c-.59,.12-1.17,.18-1.71,.18h0Zm6.53-16.32c-.48,0-.98,.05-1.5,.16-2.04,.42-4.13,1.62-5.88,3.38-1.75,1.75-2.95,3.84-3.38,5.88-.41,1.96-.04,3.64,1.03,4.71,1.07,1.07,2.75,1.44,4.71,1.03,2.04-.42,4.13-1.62,5.88-3.38,1.75-1.75,2.95-3.84,3.38-5.88,.41-1.96,.04-3.64-1.03-4.71-.79-.79-1.9-1.19-3.21-1.19Z" fill="#fff"></path>
    <path d="M198.45,306.54c-.1,0-.2-.03-.29-.09-.22-.16-.28-.47-.12-.7l2.88-4.03c.16-.23,.47-.28,.7-.12,.22,.16,.28,.47,.12,.7l-2.88,4.03c-.1,.14-.25,.21-.41,.21Z" fill="#002346"></path>
    <g>
      <rect x="34.45" y="347.47" width="389" height="7.48" fill="#fff"></rect>
      <path d="M423.95,355.45H33.95v-8.48H423.95v8.48Zm-389-1H422.95v-6.48H34.95v6.48h0Z" fill="#002346"></path>
    </g>
    <g>
      <path d="M113.29,228.93v19.56h-6.91s2.88,23.59,27.63,23c0,0,23-.58,9.78-21.29l-1.15-15-26.47-10.36-2.88,4.09h0Z" fill="#f2b3c1"></path>
      <path d="M133.11,272c-24.09,0-27.2-23.21-27.23-23.45l-.07-.56h6.97v-19.22l3.2-4.54,27.13,10.62,1.16,15.19c4.1,6.46,5.14,11.68,3.09,15.53-3.24,6.1-12.93,6.41-13.35,6.42-.31,0-.61,.01-.91,.01h.01Zm-26.15-23.01c.61,3.61,4.81,22.54,27.04,22,.09,0,9.52-.31,12.49-5.89,1.87-3.53,.83-8.45-3.12-14.63l-.07-.11-1.13-14.81-25.81-10.1-2.56,3.64v19.9h-6.84Z" fill="#002346"></path>
    </g>
    <g>
      <circle cx="99.48" cy="190.95" r="11.22" fill="#002346"></circle>
      <path d="M99.48,202.67c-6.46,0-11.72-5.26-11.72-11.72s5.26-11.72,11.72-11.72,11.72,5.26,11.72,11.72-5.26,11.72-11.72,11.72Zm0-22.44c-5.91,0-10.72,4.81-10.72,10.72s4.81,10.72,10.72,10.72,10.72-4.81,10.72-10.72-4.81-10.72-10.72-10.72Z" fill="#002346"></path>
    </g>
    <g>
      <circle cx="110.12" cy="199.29" r="11.22" fill="#dc6f50"></circle>
      <path d="M110.12,211.01c-6.46,0-11.72-5.26-11.72-11.72s5.26-11.72,11.72-11.72,11.72,5.26,11.72,11.72-5.26,11.72-11.72,11.72Zm0-22.44c-5.91,0-10.72,4.81-10.72,10.72s4.81,10.72,10.72,10.72,10.72-4.81,10.72-10.72-4.81-10.72-10.72-10.72Z" fill="#002346"></path>
    </g>
    <g>
      <path d="M112.98,191.96h0c8.72-6.51,21.06-4.72,27.57,4l10.4,13.94c6.51,8.72,4.72,21.06-4,27.57h0c-8.72,6.51-21.06,4.72-27.57-4l-10.4-13.94c-6.51-8.72-4.72-21.06,4-27.57Z" fill="#f2b3c1"></path>
      <path d="M135.2,241.91c-.98,0-1.96-.07-2.95-.21-5.34-.78-10.06-3.58-13.29-7.91l-10.4-13.94c-3.23-4.32-4.58-9.65-3.8-14.99,.78-5.34,3.58-10.06,7.91-13.29,4.32-3.23,9.64-4.58,14.99-3.8,5.34,.78,10.06,3.58,13.29,7.91l10.4,13.94c3.23,4.32,4.58,9.65,3.8,14.99-.78,5.34-3.58,10.06-7.91,13.29-3.53,2.63-7.72,4.02-12.04,4.02h0Zm-10.49-53.36c-4.11,0-8.09,1.31-11.44,3.82-4.11,3.07-6.78,7.55-7.52,12.63s.55,10.13,3.61,14.24l10.4,13.94c3.07,4.11,7.55,6.78,12.63,7.52,5.08,.74,10.13-.55,14.25-3.61s6.78-7.55,7.52-12.63-.55-10.13-3.61-14.25l-10.4-13.94c-3.07-4.11-7.55-6.78-12.63-7.52-.94-.14-1.87-.2-2.8-.2h-.01Z" fill="#002346"></path>
    </g>
    <g>
      <path d="M142.92,239.58l.87,10.65c15.53,1.72,28.23,12.06,28.23,12.06,10.97-4.04-2.34-16.67-2.34-16.67-1.68-2.11-2.12-4.96-1.15-7.48,4.61-12.66-9.21-20.14-9.21-20.14-7.5-5.76-11.5-19-11.5-19-6.33-16.08-15.54-12.08-15.54-12.08-31.65-3.45-31.65,14.38-31.65,14.38-3.45,18.99-20.14,29.93-20.14,29.93-2.39,2.17-3.47,4.43-3.88,6.4-.54,2.54,.28,5.13,1.85,7.2,2.64,3.49,.88,6.55,.88,6.55-8.06,6.33-7.16,10.91-7.16,10.91,17.23-15.23,41.11-13.79,41.11-13.79v-19.56l-3.74-12.57c17.55-2.21,27.33-23.54,27.33-23.54,0,0,1.18,.47,3.67,3.16l10.4,13.94s8.37,9.69,1.23,21.72c0,0-3.37,5.84-9.26,7.94h0Z" fill="#002346"></path>
      <path d="M71.86,263.24l-.17-.86c-.04-.2-.86-4.92,7.26-11.33,.24-.48,1.32-3.01-.89-5.92-1.76-2.33-2.47-5.1-1.94-7.6,.52-2.46,1.88-4.7,4.04-6.66,.23-.16,16.61-11.1,19.98-29.65,0-.12,.05-5.16,4.83-9.45,5.47-4.91,14.64-6.71,27.25-5.36,.6-.22,3.16-1.01,6.36,.32,3.93,1.63,7.19,5.69,9.71,12.09,.05,.17,4.06,13.19,11.34,18.79,.08,.03,14.08,7.79,9.38,20.71-.9,2.35-.49,5.03,1.07,7,.27,.25,7.8,7.47,6.67,12.95-.42,2.03-1.95,3.54-4.55,4.5l-.27,.1-.22-.18c-.13-.1-12.77-10.27-27.97-11.95l-.41-.05-.93-11.44,.36-.13c5.64-2.01,8.96-7.66,8.99-7.72,6.87-11.58-.84-20.76-1.17-21.14l-10.42-13.97c-1.52-1.64-2.53-2.42-3.05-2.76-1.6,3.19-11.13,20.87-26.9,23.26l3.59,12.15v20.09l-.53-.03c-.24,0-23.88-1.25-40.75,13.67l-.65,.58h-.01Zm72.4-13.46c14.18,1.71,26.07,10.56,27.85,11.94,2.09-.83,3.32-2.06,3.65-3.67,1.02-4.94-6.35-12-6.42-12.07-1.83-2.29-2.3-5.35-1.27-8.02,4.4-12.09-8.43-19.22-8.98-19.52-7.61-5.83-11.58-18.75-11.74-19.29-2.39-6.08-5.47-9.95-9.12-11.48-3.21-1.34-5.72-.3-5.74-.29l-.12,.05h-.13c-12.36-1.36-21.3,.35-26.57,5.06-4.45,3.98-4.52,8.76-4.52,8.81-3.46,19.07-20.2,30.24-20.37,30.35-1.94,1.77-3.19,3.83-3.67,6.08-.47,2.22,.17,4.7,1.76,6.79,2.81,3.71,.99,6.96,.92,7.1l-.12,.14c-5.48,4.31-6.7,7.76-6.94,9.4,15.67-13.19,36.49-13.29,40.08-13.19v-18.97l-3.89-13.07,.58-.07c17.07-2.15,26.84-23.04,26.94-23.25l.2-.43,.44,.18c.13,.05,1.35,.59,3.85,3.29l10.44,13.98c.06,.07,8.5,10.07,1.26,22.27-.14,.24-3.39,5.79-9.16,8.02l.81,9.86h-.02Z" fill="#002346"></path>
    </g>
    <g>
      <ellipse cx="111.28" cy="223.45" rx="5.47" ry="7.77" transform="translate(-103.15 95.65) rotate(-32.73)" fill="#f2b3c1"></ellipse>
      <path d="M113.23,231.13c-2.43,0-5.18-1.65-6.97-4.44-1.18-1.83-1.78-3.88-1.7-5.78,.08-1.96,.88-3.52,2.25-4.41,1.37-.88,3.12-.96,4.94-.22,1.76,.71,3.37,2.12,4.55,3.95,2.46,3.84,2.22,8.4-.55,10.18-.75,.48-1.61,.71-2.52,.71h0Zm-3.88-14.34c-.74,0-1.42,.19-2,.56h0c-1.09,.7-1.73,1.98-1.79,3.61-.07,1.69,.48,3.54,1.54,5.2,2.17,3.37,5.81,4.91,8.11,3.43,2.31-1.48,2.42-5.43,.25-8.8-1.07-1.66-2.52-2.93-4.09-3.56-.7-.29-1.39-.43-2.03-.43h0Z" fill="#002346"></path>
    </g>
    <g>
      <path d="M78.84,320.26l7.15-14.62-34-4-10.07,30.29s-5.17,13.81,13.24,17.26l118,1.73s12.08,1.73,2.87-6.91c0,0-16.69-13.23-32.8-15l-63.61-7.32c-.69-.08-1.09-.81-.79-1.44h.01Z" fill="#f2b3c1"></path>
      <path d="M175.34,351.57c-1.1,0-2.02-.12-2.24-.15l-117.94-1.73c-6.43-1.2-10.74-3.73-12.89-7.55-2.79-4.95-.89-10.17-.81-10.39l10.19-30.66,35.1,4.13-7.46,15.26c-.07,.15-.07,.32,0,.46s.22,.24,.38,.26l63.61,7.32c16.06,1.76,32.88,14.97,33.05,15.1,3.02,2.83,4.14,4.89,3.46,6.31-.65,1.35-2.77,1.64-4.47,1.64h.02Zm-123-49.39l-9.94,29.91c-.02,.07-1.82,5.04,.74,9.57,2,3.54,6.08,5.9,12.11,7.04l117.92,1.72c1.95,.27,5.16,.26,5.73-.93,.26-.54,.19-1.93-3.21-5.12-.13-.1-16.73-13.13-32.51-14.87l-63.61-7.32c-.48-.06-.91-.34-1.15-.77-.23-.43-.24-.94-.03-1.38l6.84-13.99-32.9-3.87h.01Z" fill="#002346"></path>
    </g>
    <path d="M171.22,198.31l1.83-1.6c7.53-6.59,12-15.11,14.45-21.34h-5c-7.52,0-13.61-6.1-13.62-13.62V92.01c0-7.52,6.1-13.62,13.62-13.63h70.54c7.52,.01,13.61,6.11,13.62,13.63v69.74c-.01,7.52-6.1,13.61-13.62,13.62h-46c-11.22,14.83-33.35,22.12-33.57,22.19l-2.25,.75Zm11.31-118.93c-6.97,.01-12.61,5.66-12.62,12.63v69.74c0,6.97,5.65,12.61,12.62,12.62h6.42l-.26,.68c-2.87,7.76-7.36,14.82-13.16,20.72,6-2.3,22-9.32,30.92-21.2l.15-.2h46.47c6.97,0,12.61-5.65,12.62-12.62V92.01c0-6.97-5.65-12.62-12.62-12.63,0,0-70.54,0-70.54,0Z" fill="#002346"></path>
    <g>
      <rect x="179.72" y="88.4" width="76.95" height="76.95" rx="10.97" ry="10.97" fill="#dc6f50"></rect>
      <path d="M245.7,165.85h-55.01c-6.32,0-11.47-5.15-11.47-11.47v-55.01c0-6.32,5.15-11.47,11.47-11.47h55.01c6.32,0,11.47,5.15,11.47,11.47v55.01c0,6.32-5.15,11.47-11.47,11.47h0Zm-55.01-76.95c-5.77,0-10.47,4.7-10.47,10.47v55.01c0,5.77,4.7,10.47,10.47,10.47h55.01c5.77,0,10.47-4.7,10.47-10.47v-55.01c0-5.77-4.7-10.47-10.47-10.47h-55.01Z" fill="#002346"></path>
    </g>
    <g>
      <path d="M214.27,133.72c-.05-1.43,.31-2.84,1.05-4.07,1.35-1.81,2.88-3.49,4.56-5l1.26-1.26c1.16-1.04,2.24-2.17,3.23-3.37,.51-.69,.78-1.53,.77-2.39,.09-1.53-.55-3.01-1.72-4-1.38-1.04-3.08-1.55-4.8-1.44-3.6,0-6.83,2-9.68,6l-7.23-5.19c1.92-2.89,4.49-5.28,7.51-7,2.92-1.62,6.2-2.45,9.54-2.42,4.86,0,8.73,1.27,11.61,3.82s4.32,6.04,4.31,10.49c.03,1.43-.22,2.85-.73,4.18-.58,1.33-1.36,2.56-2.32,3.65-1.05,1.24-2.68,2.91-4.87,5-1.09,.97-2.07,2.07-2.91,3.26-.45,.88-.65,1.86-.6,2.85h-9l.02-3.11h0Zm.59,15c-1.01-.93-1.59-2.24-1.57-3.62-.03-1.38,.54-2.71,1.57-3.64,1.06-.99,2.46-1.52,3.9-1.48,1.42-.03,2.79,.5,3.82,1.48,1.03,.93,1.61,2.26,1.58,3.64,0,1.38-.56,2.69-1.58,3.62-1.02,.99-2.4,1.53-3.82,1.51-1.45,.03-2.85-.52-3.9-1.53v.02Z" fill="#fff"></path>
      <path d="M218.64,150.73c-1.17,0-2.31-.35-3.28-.99v.09l-.84-.75c-1.12-1.02-1.75-2.48-1.73-4-.03-1.51,.6-2.98,1.74-4,1.15-1.08,2.66-1.66,4.25-1.61,1.53-.03,3.02,.54,4.15,1.62,1.13,1.01,1.76,2.48,1.74,4.01,0,1.5-.62,2.96-1.74,3.98-1.12,1.08-2.57,1.67-4.17,1.64h-.12Zm-3.78-2.71l.34,.33c.96,.92,2.18,1.42,3.54,1.39,1.36,.02,2.55-.47,3.48-1.37,.92-.84,1.44-2.02,1.43-3.26,.02-1.25-.49-2.44-1.42-3.27-.95-.9-2.18-1.39-3.47-1.35-1.35-.04-2.6,.44-3.57,1.35-.93,.84-1.44,2.02-1.41,3.26,0,1.08,.37,2.12,1.07,2.92h.01Zm8.92-10.68h-10.03l.02-3.6c-.06-1.53,.33-3.03,1.12-4.34,1.39-1.88,2.95-3.58,4.65-5.11l1.24-1.24c1.16-1.04,2.23-2.15,3.2-3.33,.43-.58,.67-1.32,.66-2.06,.08-1.4-.5-2.74-1.54-3.63-1.26-.95-2.85-1.43-4.45-1.32-3.44,0-6.56,1.95-9.3,5.79l-.29,.41-8.03-5.76,.27-.4c1.96-2.94,4.61-5.41,7.68-7.16,2.99-1.66,6.34-2.53,9.79-2.49,4.96,0,8.97,1.33,11.94,3.95,2.98,2.63,4.49,6.29,4.48,10.87,.03,1.49-.23,2.96-.76,4.36-.61,1.4-1.42,2.67-2.41,3.8-1.05,1.24-2.65,2.89-4.9,5.03-1.07,.96-2.03,2.03-2.85,3.19-.37,.74-.56,1.64-.51,2.54l.03,.53v-.03Zm-9.03-1h7.99c.03-.9,.25-1.78,.66-2.58,.9-1.28,1.91-2.41,3.02-3.41,2.18-2.08,3.8-3.75,4.82-4.95,.93-1.06,1.68-2.24,2.24-3.53,.48-1.26,.72-2.6,.69-3.97,0-4.29-1.39-7.69-4.14-10.13-2.81-2.48-6.69-3.73-11.45-3.7-3.19,0-6.34,.81-9.13,2.36-2.79,1.59-5.22,3.81-7.06,6.44l6.43,4.62c2.87-3.85,6.16-5.8,9.79-5.8,1.81-.11,3.63,.43,5.1,1.54,1.3,1.1,2.01,2.75,1.92,4.43,.02,.93-.29,1.89-.87,2.66-1.01,1.24-2.12,2.39-3.3,3.44l-1.24,1.24c-1.67,1.5-3.18,3.16-4.51,4.95-.66,1.1-1,2.42-.95,3.75l-.02,2.63h0Z" fill="#002346"></path>
    </g>
    <path d="M87.89,306.82s-.08,0-.12-.02c-.27-.07-.43-.34-.36-.61l6.29-25.17c.07-.27,.33-.43,.61-.36,.27,.07,.43,.34,.36,.61l-6.29,25.17c-.06,.23-.26,.38-.49,.38h0Z" fill="#002346"></path>
    <path d="M93.98,278.88h-.03c-.28-.02-.48-.26-.47-.53,.04-.66,.82-16.22-18.26-18.92-.27-.04-.46-.29-.42-.56s.28-.46,.57-.43c20.02,2.83,19.13,19.8,19.12,19.97-.02,.26-.24,.47-.5,.47h-.01Z" fill="#002346"></path>
    <path d="M135.17,276.54c-11.88,0-22.97-5.94-23.13-6.03-.24-.13-.33-.44-.2-.68,.13-.24,.43-.33,.68-.2,.22,.12,22.21,11.89,36.99,1.89,.23-.15,.54-.09,.69,.13,.16,.23,.09,.54-.13,.69-4.58,3.1-9.81,4.19-14.9,4.19h0Z" fill="#002346"></path>
    <path d="M133.28,301.14c-.28,0-.5-.22-.5-.5v-24.57c0-.28,.22-.5,.5-.5s.5,.22,.5,.5v24.57c0,.28-.22,.5-.5,.5Z" fill="#002346"></path>
    <path d="M155.49,311.64c-.18,0-.36-.1-.45-.28-.12-.25-.02-.55,.23-.67,4.71-2.29,7.86-5.75,9.38-10.28,3.57-10.69-3.11-23.98-3.18-24.11-.13-.25-.03-.55,.22-.67,.25-.12,.55-.03,.67,.22,.29,.56,6.94,13.79,3.24,24.88-1.6,4.8-4.93,8.45-9.89,10.87-.07,.03-.14,.05-.22,.05h0Z" fill="#002346"></path>
    <path d="M178.39,351.07c-.23,0-.43-.15-.49-.38-.85-3.54-12.33-8.88-16.68-10.64-.26-.1-.38-.4-.28-.65,.1-.26,.4-.38,.65-.28,.66,.27,16.13,6.58,17.28,11.34,.06,.27-.1,.54-.37,.6-.04,0-.08,.01-.12,.01h0Z" fill="#002346"></path>
    <path d="M173.17,351.42c-.23,0-.44-.16-.49-.39-.63-2.82-10.21-6.67-13.85-7.92-.26-.09-.4-.37-.31-.64,.09-.26,.37-.4,.63-.31,1.39,.48,13.64,4.77,14.5,8.65,.06,.27-.11,.54-.38,.6-.04,0-.07,.01-.11,.01h.01Z" fill="#002346"></path>
    <g>
      <ellipse cx="131.53" cy="199.18" rx="15.5" ry="7.5" fill="#002346"></ellipse>
      <path d="M131.53,207.18c-8.97,0-16-3.51-16-8s7.03-8,16-8,16,3.51,16,8-7.03,8-16,8Zm0-15c-8.13,0-15,3.21-15,7s6.87,7,15,7,15-3.21,15-7-6.87-7-15-7Z" fill="#002346"></path>
    </g>
  </g>
  <g>
    <g>
      <path d="M409.32,519.25s18.81-15.82,40.17-.42c0,0,13.41,10.43,4.47,19.37,0,0-9.44,6.46-23.34-4.47,0,0-14.78-12.06-21.29-14.47h0Z" fill="#7cd295"></path>
      <path d="M446.41,540.55c-4.13,0-9.67-1.38-16.1-6.43-.15-.13-14.8-12.04-21.16-14.4l-.81-.3,.66-.55c.19-.16,19.36-15.89,40.78-.45,.31,.24,7.32,5.77,7.73,12.38,.18,2.84-.9,5.45-3.2,7.75-.09,.07-3.01,2-7.9,2Zm-36.09-21.43c6.83,3,20.03,13.74,20.61,14.22,13.45,10.57,22.65,4.51,22.74,4.44,2.02-2.03,3-4.38,2.84-6.92-.38-6.16-7.26-11.59-7.33-11.64-18.53-13.36-35.33-2.67-38.86-.1Z" fill="#002346"></path>
    </g>
    <g>
      <path d="M388.53,511.52s20.74-28.95,8.32-57.25c0,0-13.91-27.81,2.48-36.25,0,0,20.36-8.44,31.29,21.36,0,0,14.65,43.49-42.09,72.15h0Z" fill="#7cd295"></path>
      <path d="M386.93,512.88l1.19-1.66c.21-.29,20.42-29.05,8.27-56.76-.13-.26-13.92-28.33,2.71-36.9,.33-.14,7.21-2.91,15.22,.6,7.16,3.14,12.8,10.21,16.76,21.03,.04,.12,3.67,11.19,.25,25.62-3.15,13.29-13.1,32.26-42.58,47.16l-1.82,.92h0Zm18.99-95.48c-3.77,0-6.36,1.04-6.4,1.06-15.72,8.1-2.36,35.29-2.23,35.57,10.73,24.47-3.23,49.66-7.31,56.16,27.8-14.57,37.31-32.76,40.36-45.57,3.38-14.16-.17-25-.21-25.11-3.86-10.54-9.32-17.42-16.22-20.44-2.91-1.27-5.68-1.67-8-1.67h.01Z" fill="#002346"></path>
    </g>
    <g>
      <path d="M335.81,428.09c-5.15,2.54-8.53,7.76-8.45,13.5,.11,7.17,4.5,17.04,25.28,22.6,0,0,24.37,6.04,27.08,24.13,0,0,6.72-22.41-4.74-43.82-4.39-8.2-11.7-14.54-20.6-17.24-5.59-1.7-12.26-2.27-18.57,.83h0Z" fill="#7cd295"></path>
      <path d="M379.56,490.61l-.33-2.21c-2.63-17.54-26.47-23.65-26.71-23.71-21.01-5.62-25.55-15.66-25.66-23.08-.08-5.82,3.34-11.3,8.73-13.96h0c5.51-2.71,11.88-3.01,18.94-.86,8.88,2.69,16.3,8.9,20.9,17.49,11.43,21.34,4.85,43.97,4.78,44.2l-.64,2.14h-.01Zm-33.95-64.25c-3.44,0-6.64,.73-9.58,2.17h0c-5.04,2.48-8.25,7.6-8.17,13.04,.1,7.08,4.51,16.67,24.91,22.13,.23,.06,22.71,5.81,26.99,22.32,1.3-6.09,3.97-24.12-5.22-41.29-4.47-8.35-11.68-14.38-20.31-17-3.01-.91-5.89-1.37-8.62-1.37h0Z" fill="#002346"></path>
    </g>
    <g>
      <path d="M334.66,502.55c1.25,2.38,3.57,5.04,7.56,7.83,0,0,15.68,9.09,19.76,21.93,0,0-.39-20.94-12.31-36.83,0,0-1.04-1.96-3.16-3.49-7.02-5.06-15.87,2.89-11.85,10.56Z" fill="#7cd295"></path>
      <path d="M362.54,535.75l-1.04-3.28c-3.97-12.5-19.38-21.56-19.54-21.65-3.72-2.6-6.32-5.3-7.75-8.03h0c-2.25-4.28-.62-8.48,1.99-10.74,3.09-2.69,7.25-2.86,10.59-.46,2.2,1.58,3.27,3.57,3.31,3.66,11.84,15.77,12.37,36.84,12.37,37.05l.06,3.44h.01Zm-20.73-44.83c-1.98,0-3.74,.84-4.95,1.89-2.14,1.86-3.89,5.47-1.76,9.52h0c1.36,2.59,3.85,5.17,7.4,7.65,.56,.32,13.48,7.91,18.75,19.12-.64-6.46-3.05-21.4-11.98-33.31-.05-.08-1.06-1.94-3.05-3.38-1.49-1.07-3-1.5-4.4-1.5h0Z" fill="#002346"></path>
    </g>
    <g>
      <polygon points="353.64 552.11 356.28 604.01 400.32 604.01 403.3 552.6 353.64 552.11" fill="#fff"></polygon>
      <path d="M400.32,604.51h-44.04c-.27,0-.49-.21-.5-.48l-2.64-51.9c0-.14,.04-.27,.14-.37s.22-.16,.37-.15l49.66,.49c.14,0,.27,.06,.36,.16s.14,.23,.13,.37l-2.98,51.4c-.02,.26-.23,.47-.5,.47h0Zm-43.57-.99h43.09l2.92-50.41-48.61-.48,2.59,50.89h0Z" fill="#002346"></path>
    </g>
    <path d="M387.91,552.36h-.04c-.28-.02-.48-.26-.46-.54,.02-.21,1.72-20.69,15.81-30.24,8.34-5.65,19.29-6.41,32.52-2.24,.26,.08,.41,.36,.33,.63s-.36,.41-.63,.33c-12.92-4.07-23.57-3.35-31.65,2.11-13.69,9.27-15.36,29.28-15.38,29.48-.02,.26-.24,.46-.5,.46h0Z" fill="#002346"></path>
    <path d="M380.26,552.01c-.22,0-.42-.15-.48-.37-7.8-27.9,11.09-44.07,14.96-47.03,1.15-.88,2.51-1.93,3.81-3.06,34.31-29.53,14.46-62.6,14.26-62.93-.15-.24-.07-.54,.16-.69,.24-.15,.54-.07,.69,.16,.21,.34,20.52,34.11-14.46,64.21-1.32,1.14-2.69,2.2-3.86,3.09-3.78,2.89-22.23,18.68-14.6,45.96,.07,.27-.08,.54-.35,.62-.05,.01-.09,.02-.14,.02v.02Z" fill="#002346"></path>
    <path d="M376.69,552.38c-.17,0-.33-.08-.43-.24-12.14-19.56-3.09-44.48-.02-51.65,.77-1.81,1.32-3.31,1.71-4.75,8.53-30.7-17.38-49.33-17.65-49.52-.23-.16-.28-.47-.12-.7s.47-.28,.7-.12c.27,.19,26.75,19.21,18.04,50.6-.41,1.48-.97,3.03-1.76,4.87-3.01,7.06-11.93,31.58-.05,50.73,.15,.24,.07,.54-.16,.69-.08,.05-.17,.08-.26,.08h0Z" fill="#002346"></path>
    <path d="M363.92,552.07h-.02c-.28-.01-.49-.24-.48-.52,1.32-32.61-17.81-45.59-18-45.71-.23-.15-.29-.46-.14-.69s.46-.29,.69-.14c.2,.13,19.8,13.38,18.46,46.59-.01,.27-.23,.48-.5,.48h0Z" fill="#002346"></path>
  </g>
</svg>
